<mxfile host="www.draw.io" modified="2019-11-22T01:34:02.060Z" agent="Mozilla/5.0 (X11; Ubuntu; Linux x86_64; rv:68.0) Gecko/20100101 Firefox/68.0" etag="WYSrYubniKT6ci8KSL_Y" version="12.2.9" type="github" pages="1">
  <diagram id="n2jPuTEu8eCVJO-5JXMt" name="Page-1">
    <mxGraphModel dx="1357" dy="807" grid="1" gridSize="10" guides="1" tooltips="1" connect="1" arrows="1" fold="1" page="1" pageScale="1" pageWidth="827" pageHeight="1169" math="0" shadow="0">
      <root>
        <mxCell id="0"/>
        <mxCell id="1" parent="0"/>
        <mxCell id="p8opLblp01Gf8nCznx4M-1" value="b" style="ellipse;whiteSpace=wrap;html=1;" vertex="1" parent="1">
          <mxGeometry x="150" y="240" width="120" height="80" as="geometry"/>
        </mxCell>
        <mxCell id="p8opLblp01Gf8nCznx4M-2" value="a" style="ellipse;whiteSpace=wrap;html=1;aspect=fixed;" vertex="1" parent="1">
          <mxGeometry x="170" y="90" width="90" height="90" as="geometry"/>
        </mxCell>
        <mxCell id="p8opLblp01Gf8nCznx4M-4" value="" style="endArrow=classic;html=1;exitX=0.5;exitY=1;exitDx=0;exitDy=0;" edge="1" parent="1" source="p8opLblp01Gf8nCznx4M-2">
          <mxGeometry width="50" height="50" relative="1" as="geometry">
            <mxPoint x="150" y="390" as="sourcePoint"/>
            <mxPoint x="215" y="240" as="targetPoint"/>
          </mxGeometry>
        </mxCell>
      </root>
    </mxGraphModel>
  </diagram>
</mxfile>
